<svg xmlns="http://www.w3.org/2000/svg" viewBox="173 211 1839 291" width="1839" height="291">
  <title>Walk of Berlin</title>
  <path fill="#1B5E20" fill-rule="evenodd" d="M390.39 400.07C390.16 395.43 396.51 383.41 398.42 378.52C403.16 366.39 408.73 354.57 413.93 342.62C416.73 336.19 419.03 329.56 422.17 323.27C424.76 318.10 433.83 300.70 433.35 295.70C432.26 284.18 414.19 274.83 406.66 275.36C400.23 275.81 394.48 279.71 389.88 283.93C363.43 308.17 336.92 332.42 311.21 357.48C304.32 364.19 277.66 392.00 272.18 394.98C271.90 390.04 287.96 366.22 291.45 360.50C303.48 340.78 314.60 320.48 327.32 301.18C332.60 293.16 344.93 277.26 348.32 269.87C358.02 248.69 349.66 240.15 332.55 228.95C328.05 226.01 322.97 221.77 317.34 221.45C308.71 220.96 303.46 228.53 299.14 234.68C289.01 249.11 279.31 263.81 269.80 278.66C243.10 320.36 205.90 382.11 186.76 427.03C182.13 437.90 171.45 459.90 175.53 471.44C177.36 476.64 180.94 479.50 184.76 483.10C189.52 487.58 195.14 492.09 201.35 494.40C212.00 498.38 225.79 480.71 232.10 474.25C235.13 471.15 238.61 468.97 241.18 465.34C245.62 459.07 297.92 408.04 306.86 399.42C311.62 394.82 327.50 378.18 332.61 376.93C333.39 380.09 326.80 396.62 325.39 400.76C322.35 409.70 320.25 419.11 317.92 428.27C312.81 448.34 307.24 468.35 328.90 480.68C334.01 483.59 338.62 483.88 344.38 483.88C348.91 483.88 354.35 484.08 358.65 482.44C367.63 479.00 387.94 455.56 394.89 447.16C413.50 424.65 433.46 403.22 453.33 381.79C458.73 375.96 463.84 369.63 469.38 363.95C496.57 336.09 524.86 309.40 552.38 281.95C567.07 267.28 584.35 253.96 596.45 236.90C600.75 230.83 606.92 222.16 605.57 214.43C599.98 212.19 593.38 218.44 588.88 221.34C574.17 230.81 560.55 242.65 547.46 254.18C508.96 288.07 470.29 321.78 433.33 357.45C422.83 367.57 413.18 378.50 402.91 388.77C399.57 392.11 395.00 398.94 390.39 400.07Z M661.17 460.98C659.06 449.33 677.95 424.39 685.00 415.10C696.02 400.61 706.03 385.19 716.32 370.18C729.71 350.67 743.78 331.60 757.32 312.18C764.47 301.91 781.68 280.69 784.39 269.45C785.05 266.67 784.55 263.64 783.65 260.97C781.10 253.40 757.73 237.02 749.86 240.73C742.96 243.98 733.81 258.56 729.00 264.90C692.98 312.29 658.12 360.98 626.79 411.66C623.38 417.18 620.23 422.83 617.40 428.68C615.68 432.24 615.13 437.13 612.42 440.12C609.16 443.72 603.90 446.19 599.92 448.93C596.10 451.55 587.54 456.93 583.17 453.99C582.46 443.36 600.04 414.61 606.31 405.16C610.75 398.48 618.17 391.87 615.61 383.19C613.65 376.51 596.59 366.04 590.01 364.35C586.53 363.46 582.41 365.16 579.17 363.26C573.18 359.75 567.46 347.38 555.62 346.20C526.20 343.27 479.75 377.54 462.57 399.98C455.84 408.78 447.65 420.01 447.15 431.63C446.22 453.23 458.01 469.06 476.91 478.77C483.21 482.02 491.04 486.10 498.26 483.15C516.72 475.60 528.55 455.46 534.82 452.02C537.12 460.72 535.01 469.58 541.63 476.84C558.37 495.20 598.02 473.91 612.39 460.94C614.80 462.76 619.70 475.06 627.35 481.56C643.82 495.56 663.19 495.58 681.86 485.78C688.19 482.45 694.27 476.23 700.62 473.66C707.47 474.94 717.59 488.80 732.86 480.78C746.64 473.54 760.43 456.02 772.95 446.06C776.78 443.01 781.60 434.93 786.98 435.18C787.84 445.40 786.19 457.69 791.26 467.06C809.31 500.37 852.27 469.50 868.58 450.55C873.54 444.79 891.28 422.83 883.12 416.22C877.85 418.50 873.60 423.18 869.00 426.56C862.55 431.31 842.69 443.56 835.18 442.98C831.26 434.08 834.01 396.93 840.13 389.61C843.06 386.10 862.83 374.04 868.29 369.81C872.53 366.54 876.34 362.77 880.24 359.10C886.56 353.16 896.90 345.43 889.73 335.27C881.55 334.57 867.79 346.17 860.91 350.66C845.41 360.77 829.69 370.46 814.28 380.73C807.49 385.25 799.35 392.81 792.18 395.98C791.97 392.32 795.82 389.04 797.68 386.13C803.35 377.22 809.62 368.50 816.00 360.10C829.61 342.19 842.18 323.46 855.30 305.18C863.01 294.44 875.30 279.58 880.32 267.75C888.66 248.09 882.55 244.63 867.16 234.68C862.34 231.56 855.08 227.16 849.14 229.67C843.85 231.90 841.70 237.42 838.18 241.46C834.23 245.99 831.16 251.19 827.56 255.98C821.76 263.73 815.52 271.19 809.89 279.09C774.50 328.68 739.89 378.83 707.79 430.66C697.51 447.25 695.51 449.63 677.57 458.35C673.27 460.44 665.63 464.07 661.17 460.98Z M561.82 386.02C562.04 390.33 552.34 401.88 549.35 405.52C537.01 420.52 530.17 431.25 514.62 444.28C510.19 447.99 503.32 454.23 497.17 453.98C493.01 448.45 500.75 436.09 503.75 431.08C513.13 415.39 529.50 402.70 545.10 393.69C549.75 391.00 556.28 385.79 561.82 386.02Z M959.21 381.35C938.22 386.06 914.99 403.00 908.32 423.97C900.17 449.62 925.70 466.84 948.79 461.69C970.35 456.87 991.15 433.86 994.70 412.33C995.39 408.13 993.03 403.79 991.37 400.11C990.37 397.89 990.78 395.51 989.42 393.38C983.61 384.25 969.56 379.03 959.21 381.35Z M980.03 399.17C983.46 404.50 979.53 411.42 977.04 416.33C971.50 427.23 951.12 445.64 938.39 446.07C934.15 441.39 938.37 433.66 941.20 429.30C946.81 420.62 968.89 396.42 980.03 399.17Z M1013.82 408.02C1014.04 412.47 1005.91 422.54 1003.43 426.70C994.10 442.37 983.46 458.07 976.95 475.24C974.74 481.05 970.23 486.16 971.42 492.74C976.27 495.54 991.86 491.81 995.55 487.69C1001.35 481.20 1029.33 435.23 1036.20 424.34C1038.31 420.99 1045.48 407.90 1048.15 406.40C1054.64 402.73 1078.29 406.63 1077.73 394.64C1072.61 390.08 1063.83 394.03 1057.93 391.61C1058.08 387.44 1065.15 377.00 1068.83 375.02C1069.80 376.28 1069.95 378.27 1071.13 379.28C1074.96 382.53 1083.70 381.36 1087.04 377.86C1096.13 368.34 1098.72 343.07 1080.37 342.15C1062.12 341.24 1042.57 368.54 1032.87 382.09C1030.48 385.43 1028.59 389.59 1025.73 392.55C1021.88 396.52 1009.15 393.24 1006.28 397.94C1002.97 403.35 1009.77 406.63 1013.82 408.02Z M1212.07 282.39C1211.92 286.31 1190.84 312.83 1187.00 317.90C1164.84 347.06 1143.63 377.01 1122.57 407.00C1115.75 416.71 1108.20 426.11 1102.03 436.29C1099.78 439.99 1096.00 444.08 1097.39 448.81C1098.66 453.17 1104.84 455.08 1108.11 457.63C1105.89 463.74 1079.86 478.77 1085.72 489.68C1090.06 497.75 1103.61 498.26 1111.34 498.93C1135.80 501.07 1160.08 499.88 1184.19 495.99C1224.36 489.52 1268.32 473.00 1301.01 448.43C1321.28 433.19 1335.92 417.38 1333.82 390.39C1333.26 383.20 1329.11 374.56 1323.68 369.80C1320.42 366.94 1314.49 364.61 1312.73 360.63C1315.36 357.99 1329.43 352.46 1334.10 349.67C1346.05 342.55 1359.52 331.07 1368.58 320.55C1373.59 314.72 1378.79 308.19 1382.11 301.20C1395.51 272.91 1382.64 247.70 1354.30 237.49C1317.72 224.30 1271.49 227.49 1234.04 234.97C1224.29 236.91 1201.90 239.90 1194.39 245.64C1183.71 253.80 1203.33 277.58 1212.07 282.39Z M1165.94 445.61C1172.95 432.71 1185.37 418.17 1194.11 405.91C1201.59 395.44 1208.23 384.13 1216.18 374.02C1222.46 373.37 1229.55 373.04 1235.81 373.99C1238.97 374.47 1242.21 375.64 1245.39 375.84C1254.72 376.43 1281.14 381.63 1287.76 388.07C1289.78 390.03 1290.32 392.62 1290.06 395.34C1289.13 405.19 1279.67 411.64 1272.71 417.14C1252.72 432.92 1221.68 438.53 1197.44 443.34C1190.62 444.69 1171.99 448.11 1165.94 445.61Z M1356.98 280.17C1356.21 289.92 1340.98 300.61 1333.10 305.22C1312.66 317.19 1291.59 326.23 1268.41 331.35C1260.25 333.15 1251.62 336.69 1243.18 335.98C1242.93 330.59 1260.78 309.59 1264.54 303.45C1272.22 290.93 1266.93 287.92 1267.92 279.39C1275.54 276.30 1301.00 273.07 1309.63 272.89C1318.20 272.70 1323.48 273.45 1331.38 273.84C1339.47 274.24 1350.72 274.31 1356.98 280.17Z M1580.39 372.07C1578.35 366.05 1580.79 361.64 1576.79 355.08C1574.12 350.68 1556.30 345.81 1551.15 346.17C1549.14 346.31 1547.03 347.49 1545.37 348.57C1539.42 352.47 1525.91 374.89 1520.57 381.99C1513.33 391.63 1487.62 425.85 1480.46 432.18C1468.14 443.06 1449.19 452.09 1433.76 457.41C1422.81 461.19 1406.26 465.97 1394.74 462.90C1389.32 461.45 1386.41 452.17 1392.32 449.30C1396.16 447.44 1401.16 446.99 1405.24 445.59C1426.34 438.34 1456.59 428.92 1472.94 413.38C1475.34 411.09 1478.16 409.45 1480.22 406.74C1486.97 397.85 1488.31 383.75 1480.89 374.84C1473.23 365.65 1461.86 353.99 1449.79 351.31C1435.81 348.22 1419.68 353.72 1407.02 359.62C1378.15 373.06 1346.43 395.54 1337.45 427.94C1335.05 436.60 1335.37 447.34 1338.68 455.75C1344.72 471.10 1363.29 486.46 1379.44 489.66C1382.91 490.35 1386.84 489.88 1390.38 489.88C1401.73 489.88 1412.61 488.60 1423.45 485.10C1440.29 479.68 1456.10 470.98 1470.61 460.94C1473.71 464.23 1474.97 469.12 1477.79 472.74C1483.05 479.49 1500.29 487.74 1508.86 486.80C1518.06 485.79 1529.85 467.69 1535.70 460.67C1556.42 435.77 1574.43 415.02 1598.39 392.96C1611.68 380.73 1627.12 369.91 1642.35 360.20C1646.81 357.35 1652.32 355.43 1656.31 351.91C1659.99 348.66 1659.75 335.55 1654.58 333.49C1648.15 330.93 1638.34 337.01 1632.79 339.86C1620.93 345.95 1608.88 352.32 1597.92 359.93C1593.74 362.83 1584.67 371.03 1580.39 372.07Z M1458.98 384.18C1460.18 399.68 1429.52 415.36 1417.80 420.90C1413.26 423.05 1406.13 428.37 1400.94 426.61C1407.78 413.39 1428.70 396.52 1442.08 389.76C1446.79 387.37 1453.57 383.20 1458.98 384.18Z M1704.61 466.94C1710.25 471.98 1713.28 478.82 1720.10 482.79C1736.01 492.05 1760.11 490.50 1775.51 480.42C1783.67 475.08 1789.91 466.31 1798.61 461.94C1800.58 464.08 1801.32 466.97 1803.07 469.25C1808.03 475.72 1818.35 482.34 1826.44 483.75C1842.50 486.53 1852.50 470.72 1861.96 460.39C1877.28 443.66 1893.33 428.29 1910.55 413.58C1916.12 408.82 1927.19 398.14 1933.98 396.18C1934.16 400.78 1923.71 411.89 1920.75 416.29C1904.46 440.52 1892.93 462.74 1924.51 481.43C1946.26 494.29 1977.03 476.28 1992.52 460.80C1997.44 455.89 2016.72 440.05 2006.74 433.52C2001.46 433.28 1979.45 450.51 1970.97 453.34C1967.04 454.65 1962.08 457.62 1958.17 454.99C1957.79 447.99 1967.99 436.71 1972.05 431.16C1983.51 415.49 2002.68 393.65 2008.41 375.53C2013.17 360.49 1990.88 344.73 1977.44 347.28C1970.40 348.62 1964.54 352.28 1958.32 355.53C1948.36 360.73 1940.20 368.73 1930.39 374.06C1928.07 368.58 1935.40 360.52 1928.28 350.29C1923.53 343.47 1900.72 330.93 1892.53 334.94C1885.63 338.32 1874.48 353.19 1868.62 359.05C1854.74 372.95 1836.21 396.02 1823.25 411.65C1813.74 423.11 1805.48 435.81 1793.71 445.14C1784.95 452.08 1768.91 464.60 1757.18 462.98C1755.59 456.05 1764.92 444.18 1768.53 438.31C1778.73 421.75 1791.43 406.82 1802.06 390.55C1805.96 384.57 1812.77 378.78 1813.78 371.33C1816.27 352.98 1801.34 349.80 1786.96 346.97C1782.29 346.04 1775.05 343.69 1770.85 346.95C1765.50 351.09 1755.51 368.42 1750.57 374.99C1742.02 386.37 1733.24 397.59 1724.85 409.09C1718.45 417.87 1712.39 427.58 1705.04 435.61C1702.12 438.80 1698.62 441.20 1695.51 444.18C1690.39 449.11 1665.10 467.27 1659.02 462.84C1658.43 449.32 1677.36 424.14 1685.17 412.99C1704.10 385.97 1723.47 359.26 1742.32 332.18C1749.35 322.06 1757.20 312.32 1763.80 301.93C1771.84 289.28 1794.40 264.45 1787.23 248.93C1785.42 245.00 1778.19 239.06 1774.52 236.58C1770.77 234.05 1767.09 231.37 1762.86 229.66C1754.19 226.16 1749.77 235.04 1745.29 240.52C1733.08 255.48 1722.16 271.57 1710.57 286.99C1686.78 318.64 1664.08 351.17 1641.68 383.82C1627.82 404.02 1612.51 423.98 1605.43 447.77C1596.73 477.00 1624.08 500.17 1651.85 496.75C1666.59 494.94 1681.13 487.04 1692.48 477.71C1696.64 474.28 1700.34 470.25 1704.61 466.94Z M1836.77 271.44C1828.66 273.57 1823.36 283.73 1818.57 289.98C1814.35 295.51 1799.56 310.86 1798.32 316.21C1795.60 327.90 1819.28 327.26 1825.98 325.70C1834.62 323.68 1861.69 301.79 1863.64 292.79C1865.45 284.41 1843.85 269.57 1836.77 271.44Z"/>
</svg>
